<svg xmlns="http://www.w3.org/2000/svg" width="1025.386" height="228.283" viewBox="0 0 271.3 60.4"><defs><path d="M330.714 69.286h607.124v180.371H330.714z" id="a"/></defs><path d="M.118 16.03h2.435c1.772 0 2.857.899 2.857 2.38 0 .953-.476 1.694-1.27 2.064l2.514 3.545H4.722l-2.116-3.227h-.874v3.227H.118zm1.614 1.375v1.984h.926c.688 0 1.085-.37 1.085-1.005 0-.609-.397-.98-1.085-.98zm5.927-1.376h4.657v1.376H9.273v1.852h2.593v1.376H9.273v2.01h3.043v1.376H7.659zm1.588-.688l1.296-1.534h1.667l-1.482 1.534zm4.974.688h2.646c1.772 0 2.83.9 2.83 2.381 0 1.482-1.084 2.382-2.83 2.382H15.86v3.227h-1.614zm1.614 1.376v1.984h1.084c.688 0 1.085-.37 1.085-1.005 0-.609-.423-.98-1.085-.98zm9.922-1.376h1.614v4.868c0 2.117-1.244 3.36-3.255 3.36-2.01 0-3.228-1.27-3.228-3.36V16.03h1.614v5c0 1.085.609 1.694 1.614 1.694 1.006 0 1.614-.635 1.614-1.693v-5zm3.624 0h2.276c1.667 0 2.672.82 2.672 2.17 0 .635-.291 1.19-.847 1.587.847.37 1.323 1.058 1.323 1.905 0 1.455-1.137 2.355-2.963 2.355h-2.434v-8.017zm1.614 1.376v1.746h.688c.609 0 .98-.317.98-.873 0-.53-.345-.873-.98-.873zm0 3.148v2.09h.926c.768 0 1.217-.396 1.217-1.058 0-.661-.45-1.032-1.217-1.032zm5.477-4.524h1.614v6.535h3.043v1.482h-4.657zm6.086 0h1.614v8.017h-1.614zm12.25 8.546c.159 0 .397-.026.582-.08v1.377a2.102 2.102 0 01-.847.158c-.9 0-1.72-.37-2.513-1.058l-.953-.847a4.87 4.87 0 01-1.085.133c-2.54 0-4.26-1.932-4.26-4.234 0-2.275 1.72-4.233 4.26-4.233 2.514 0 4.234 1.931 4.234 4.233 0 1.35-.582 2.567-1.588 3.334l.476.45c.635.555 1.191.767 1.694.767zm-2.25-4.55c0-1.535-1.084-2.7-2.566-2.7-1.508 0-2.593 1.191-2.593 2.7 0 1.534 1.085 2.698 2.593 2.698 1.482 0 2.567-1.164 2.567-2.699zm7.965-3.996h1.614v4.868c0 2.117-1.244 3.36-3.255 3.36-2.01 0-3.228-1.27-3.228-3.36V16.03h1.614v5c0 1.085.609 1.694 1.614 1.694 1.006 0 1.614-.635 1.614-1.693zm3.625 0h4.656v1.376h-3.042v1.852h2.592v1.376h-2.592v2.01h3.042v1.376h-4.656zM.118 27.565h4.657v1.376H1.732v1.852h2.593v1.376H1.732v3.386H.118zm6.086 0h2.434c1.773 0 2.858.9 2.858 2.381 0 .953-.477 1.693-1.27 2.064l2.513 3.545h-1.931L8.69 32.327h-.847v3.228H6.23zm1.64 1.376v2.01h.926c.688 0 1.085-.37 1.085-1.005 0-.608-.397-.979-1.085-.979zm8.282-1.376h2.116l3.043 8.017h-1.72l-.767-2.09H15.57l-.767 2.09h-1.72zm2.143 4.524l-1.085-3.016-1.111 3.016zm4.233-4.524h2.09l3.572 5.741v-5.741h1.614v8.017h-2.09l-3.572-5.742v5.742h-1.614zm15.187 5.61l1.27.978c-.608.847-1.587 1.429-2.751 1.588l-1.006 1.666h-1.429l1.006-1.693c-2.09-.37-3.466-2.117-3.466-4.154 0-2.275 1.72-4.233 4.26-4.233 1.455 0 2.645.661 3.36 1.614l-1.27 1.005c-.45-.661-1.19-1.085-2.09-1.085-1.509 0-2.593 1.191-2.593 2.7 0 1.534 1.084 2.698 2.593 2.698.952 0 1.666-.423 2.116-1.085zm4.657-5.61h2.117l3.042 8.017h-1.72l-.767-2.09h-3.201l-.768 2.09h-1.72zm2.17 4.524l-1.085-3.016-1.085 3.016zm4.233-4.524h1.614v8.017h-1.614zm4.313 5.794c.476.609 1.11.98 1.772.98.635 0 1.032-.345 1.032-.927 0-1.429-3.651-1.111-3.651-3.783 0-1.27 1.032-2.329 2.566-2.329 1.191 0 2.117.53 2.805 1.35l-1.19 1.058c-.477-.609-1.006-1.005-1.615-1.005-.555 0-.926.37-.926.846 0 1.429 3.652 1.085 3.652 3.81-.027 1.482-1.191 2.408-2.646 2.408-1.35 0-2.276-.503-2.964-1.35zm6.164-5.794h4.657v1.376H60.84v1.852h2.593v1.376H60.84v2.01h3.043v1.376h-4.657zm-33.073 30.11c.212 0 .397.158.318.582l-1.005.238c.185-.477.476-.82.687-.82m.583 1.613h-.212c-.265.291-.53.53-.794.53s-.423-.16-.423-.53c0-.158.026-.317.053-.45l1.614-.529c.317-.74-.053-1.084-.503-1.084-.767 0-1.64 1.296-1.64 2.407 0 .503.238.794.608.794.45 0 .9-.423 1.297-1.138m-.344-2.354l1.137-1.059v-.132h-.608l-.715 1.19zm-3.493.74h.53l-.847 2.355c-.08.212.026.397.238.397.476 0 1.27-.476 1.56-1.138h-.158c-.212.239-.635.53-.979.609l.794-2.196h.794l.105-.344h-.793l.29-.847h-.317l-.555.847-.662.106zm-.74-.105c.052-.212-.08-.344-.186-.344-.476 0-1.032.423-1.244 1.005h.16c.158-.212.423-.45.66-.503l-.899 2.329c-.08.211.08.344.185.344.45 0 .98-.424 1.19-1.006h-.158c-.159.212-.423.45-.661.503zm.158-1.165a.39.39 0 00.397-.396.407.407 0 00-.397-.397.407.407 0 00-.397.397c.027.211.185.396.397.396m-5.16 3.599c-.105.264 0 .423.265.423.159 0 .238-.053.291-.212l.635-1.64c.291-.344.873-.74 1.111-.74.16 0 .16.132.027.343l-.953 1.826c-.105.185.027.397.239.397.476 0 1.031-.424 1.243-1.006h-.159c-.158.212-.423.45-.661.503l.82-1.667a1.38 1.38 0 00.159-.582c0-.265-.159-.45-.423-.45-.397 0-.82.45-1.297 1.032v-.423c0-.318-.106-.582-.37-.582-.186 0-.344.158-.503.37v.053c.317-.026.45.45.212.926zm0-2.064c.106-.37.054-.714-.238-.714-.343 0-.423.264-.793 1.032v-.424c0-.317-.106-.582-.37-.582-.318 0-.636.503-.847 1.006h.158c.16-.239.318-.37.424-.37.132 0 .211.21 0 .687l-.635 1.402c-.106.265 0 .424.264.424.16 0 .238-.053.291-.212l.635-1.64c.186-.212.344-.397.53-.609zm-3.624-.265c.211 0 .397.16.317.583l-1.005.238c.159-.477.476-.82.688-.82m.555 1.613h-.211c-.265.291-.53.53-.794.53-.265 0-.423-.16-.423-.53 0-.158.026-.317.053-.45l1.614-.529c.317-.74-.053-1.084-.503-1.084-.767 0-1.64 1.296-1.64 2.407 0 .503.238.794.608.794.476 0 .926-.423 1.296-1.138m-3.81-1.614h.53L9.96 60.03c-.08.212.026.397.238.397.476 0 1.27-.476 1.561-1.138h-.159c-.211.239-.635.53-.979.609l.794-2.196h.794l.106-.344h-.794l.291-.847h-.317l-.556.847-.662.106zM7.315 59.5c0-.714.794-1.693 1.244-1.693.105 0 .185 0 .264.026l-.476 1.244c-.265.317-.688.74-.873.74-.106 0-.159-.079-.159-.317m2.46-2.408l-.237-.026-.265.265H9.22c-1.35 0-2.487 1.508-2.487 2.592 0 .318.185.477.476.477.344 0 .688-.503 1.059-1.032l-.027.185c-.053.53.106.82.397.82.318 0 .635-.502.847-1.005h-.16c-.158.238-.317.37-.422.37-.133 0-.212-.211 0-.688zm-2.857.847c.106-.37.053-.714-.238-.714-.344 0-.423.264-.794 1.032v-.424c0-.317-.105-.582-.37-.582-.318 0-.635.503-.847 1.006h.159c.159-.239.318-.37.423-.37.133 0 .212.21 0 .687l-.635 1.402c-.105.265 0 .424.265.424.159 0 .238-.053.291-.212l.635-1.64c.185-.212.344-.397.53-.609zM2.42 60.32l.053-.185c-.794-.159-.873-.159-.582-1.005l.318-.873h.873c.397 0 .397.158.344.582h.211l.53-1.403h-.212c-.185.344-.344.582-.767.582h-.874l.45-1.243c.133-.397.212-.476.741-.476h.37c.556 0 .61.158.61.688h.21l.186-.953H1.679l-.052.185c.635.133.687.185.396 1.006l-.714 1.931c-.291.794-.423.873-1.138 1.006l-.053.185zm15.875-10c.212 0 .397.158.318.581l-1.006.238c.186-.45.477-.82.688-.82m.582 1.64h-.211c-.265.292-.53.53-.794.53-.265 0-.423-.16-.423-.53 0-.158.026-.317.053-.45l1.614-.528c.317-.741-.053-1.085-.503-1.085-.767 0-1.64 1.296-1.64 2.407 0 .503.238.794.608.794.45 0 .9-.45 1.296-1.138m-.344-2.354l1.138-1.059v-.132h-.608l-.715 1.19zm-3.492.74h.53l-.848 2.355c-.079.212.027.397.239.397.476 0 1.27-.476 1.56-1.138h-.158c-.212.239-.635.53-.98.609l.795-2.196h.793l.106-.344h-.794l.292-.847h-.318l-.556.847-.661.106zm-.74-.105c.052-.212-.08-.344-.186-.344-.476 0-1.032.423-1.244 1.005h.16c.158-.212.422-.45.66-.503l-.899 2.329c-.08.211.08.344.185.344.45 0 .98-.424 1.19-1.006h-.158c-.159.212-.423.45-.661.503zm.158-1.164a.39.39 0 00.397-.397.407.407 0 00-.397-.397.407.407 0 00-.397.397c.026.211.185.397.397.397m-3.122 3.492l1.64-4.286-.053-.053-1.032.106v.132l.212.159c.185.132.132.264-.053.714l-1.27 3.36c-.106.186.027.397.238.397.477 0 .98-.423 1.19-1.005h-.158c-.159.211-.45.45-.714.476m-3.096-.397c0-.714.794-1.693 1.244-1.693.106 0 .185 0 .264.026l-.476 1.244c-.265.317-.688.74-.873.74-.08 0-.159-.105-.159-.317m2.46-2.408l-.237-.026-.265.265h-.053c-1.35 0-2.487 1.508-2.487 2.592 0 .318.185.477.476.477.344 0 .688-.503 1.059-1.032l-.027.185c-.053.53.106.82.397.82.318 0 .635-.502.847-1.005h-.159c-.159.238-.318.37-.423.37-.133 0-.212-.211 0-.688zm-5.979 3.89c0-.318.291-.503.741-.688.132.08.344.159.635.238.45.159.609.212.609.344 0 .291-.477.503-1.138.503-.556.026-.847-.106-.847-.397m1.217-1.879c-.185 0-.264-.158-.264-.344 0-.529.29-1.296.714-1.296.185 0 .265.159.265.344.026.503-.265 1.296-.715 1.296m1.27 1.588c0-.37-.344-.503-.873-.688-.476-.132-.688-.185-.688-.344 0-.132.106-.265.291-.37.768-.053 1.27-.741 1.27-1.323a.987.987 0 00-.053-.318h.662l.106-.344H6.892a.776.776 0 00-.424-.106c-.82 0-1.349.715-1.349 1.297 0 .45.291.714.635.793-.37.16-.582.37-.582.609 0 .132.053.238.159.318-.873.264-1.217.555-1.217.978 0 .397.529.583 1.164.583 1.058 0 1.931-.583 1.931-1.085m-4.1-2.514c.396 0 .396.159.343.582h.212l.529-1.402h-.212c-.185.344-.344.582-.767.582h-.873l.423-1.19c.133-.397.212-.477.741-.477h.37c.556 0 .61.159.61.688h.21l.186-.952H1.679l-.052.185c.635.132.687.185.396 1.005l-.714 1.932c-.291.793-.423.873-1.138 1.005l-.053.185h3.599l.635-1.032h-.238c-.424.397-.926.768-1.64.768-.953 0-.874-.053-.556-.926l.344-.926zm.475-2.46l1.138-.794v-.132h-.688l-.635.9h.185zm14.34-5.398c.213 0 .398.159.318.582l-1.005.238c.159-.476.45-.82.688-.82m.556 1.64h-.212c-.265.292-.53.53-.794.53s-.423-.16-.423-.53c0-.158.026-.317.053-.45l1.614-.528c.317-.741-.053-1.085-.503-1.085-.767 0-1.64 1.296-1.64 2.407 0 .503.238.794.608.794.476-.026.926-.45 1.297-1.137m-.318-2.382l1.138-1.058v-.132h-.609l-.714 1.19zm-3.36.768h.423l-.847 2.354c-.079.212.027.397.239.397.476 0 1.27-.476 1.56-1.137h-.158c-.212.238-.635.529-.98.608l.795-2.196h.793l.106-.344h-.793l.29-.847h-.317l-.556.847-.555.106zm-.424.264c.106-.37.053-.714-.238-.714-.344 0-.423.264-.793 1.032v-.424c0-.317-.106-.582-.37-.582-.318 0-.636.503-.847 1.006h.132c.159-.238.317-.37.423-.37.132 0 .212.21 0 .687l-.635 1.402c-.106.265 0 .424.265.424.158 0 .238-.053.29-.212l.636-1.64.529-.609zm-3.598-.29c.212 0 .397.158.318.581l-1.006.238c.159-.476.45-.82.688-.82m.556 1.64h-.212c-.264.292-.53.53-.794.53s-.423-.16-.423-.53c0-.158.026-.317.053-.45l1.614-.528c.317-.741-.053-1.085-.503-1.085-.767 0-1.64 1.296-1.64 2.407 0 .503.238.794.608.794.45-.026.926-.45 1.297-1.137m-3.995.635c-.16 0-.397-.16-.397-.265 0-.053.08-.212.158-.45l.265-.688c.291-.344.714-.688.953-.688.158 0 .264.106.264.318 0 .608-.582 1.773-1.243 1.773m1.852-2.064c0-.476-.186-.662-.503-.662-.423 0-.794.424-1.19.953l.978-2.567-.053-.053-1.032.106v.133l.212.158c.185.133.132.291-.053.715L6.495 44.71c-.08.212-.159.423-.159.503 0 .29.37.555.741.555.794-.026 2.117-1.455 2.117-2.566m-3.202-.291c.053-.212-.08-.344-.185-.344-.476 0-1.032.423-1.244 1.005h.16c.158-.211.423-.45.66-.503l-.899 2.329c-.08.211.08.344.185.344.45 0 .98-.424 1.19-1.006h-.158c-.159.212-.423.45-.661.503zm.185-1.19a.39.39 0 00.397-.398.407.407 0 00-.397-.397.407.407 0 00-.396.397c0 .238.158.397.396.397m-2.38-.37H1.652l-.053.185c.635.132.688.185.397 1.005l-.688 1.932c-.291.794-.423.873-1.138 1.005l-.053.185h3.255l.714-1.243H3.85c-.397.45-.873.979-1.587.979-.556 0-.609-.106-.318-.926l.688-1.932c.291-.793.423-.873 1.138-1.005z"/><path d="M12.183 9.44c.106-.105.239-.237.344-.37.212-.238.424-.476.662-.687.08-.08.159-.133.212-.186.026-.026.026-.053.052-.079-.105.053-.158.132-.264.159-.027 0-.053-.027-.027-.053.08-.053.133-.106.212-.159h-.026c-.027 0-.027-.026-.027-.053-.264-.053-.45.132-.635.291-.053.027-.08-.026-.106-.026-.29.106-.529.37-.82.476V8.7c-.132.053-.238.106-.37.132-.186.053-.344.027-.503.027-.238.026-.476.08-.74.132h-.027a.928.928 0 00-.37.159h-.027l-.027.026-.132.133c-.132.053-.212.185-.344.264h-.026l-.318.318h-.053c-.026 0 0 0 0-.027.027-.026.027-.053.053-.08.027-.026.027-.052.053-.105.027-.053.053-.08.08-.132V9.52h-.027c.106-.106.212-.185.344-.264-.027 0-.027 0-.027-.027 0-.026.027-.026.027-.053V9.15l-.027-.027a.2.2 0 01-.105.053c-.053.053-.08.133-.16.133h-.052v-.08s0-.026.026-.026v-.027c0-.026.027-.026.027-.053v-.026l.026-.026c0-.027 0-.027-.026-.027.026-.053.08-.08.132-.132.08-.027.159-.08.238-.133l.027-.026a.894.894 0 00-.318.159s-.026 0-.026.026c0 0-.027 0-.053-.026v-.027c.026-.053.08-.053.132-.106.027 0 .053 0 .053.027.635-.503 1.535-.37 2.276-.635.052-.053.132-.08.185-.132.106-.053.185-.133.29-.212.16-.132.292-.265.345-.45 0-.026-.027-.053-.027-.053a2.935 2.935 0 01-.873.662c-.423.211-.873.185-1.323.238.027-.053.053-.053.106-.053 0-.053.053-.08.08-.132h.052c.027 0 .027-.053.053-.053.053 0 .106-.027.08-.027-.053-.08-.186.053-.291 0 .053-.053.026-.106.053-.132h.079c0-.053.053-.08.053-.08.29-.185.582-.317.873-.476-.053 0-.106.053-.159.027.053 0 0-.053.053-.053.212-.053.397-.185.635-.265-.08 0-.132.053-.212 0 .053-.026.053-.053.133-.053v-.053c0-.026.026-.026.053-.026-.027 0-.053-.026-.053-.026.026-.053.08-.027.132-.053-.026 0-.053 0-.053-.027.053-.08.159-.106.265-.132-.027-.053-.08 0-.08-.053 0-.026.027-.026.053-.026h-.053c-.053-.027-.026-.053-.026-.08.132-.132.132-.317.185-.476-.026 0-.053 0-.053-.027-.212.212-.529.291-.82.37h-.106a.325.325 0 01-.344-.026c-.08-.053-.132-.105-.212-.158a1.755 1.755 0 00-.502-.238c-.45.132-.98.052-1.508.079.211-.132.476-.132.714-.212.344-.106.661-.211 1.032-.211-.053-.027-.132 0-.212 0-.29-.027-.555.052-.873.132-.212.053-.37.132-.582.159-.132.053-.185.158-.317.132v-.053c.211-.238.45-.476.767-.503.37-.053.714 0 1.058.053.265.027.503.08.767.132.106 0 .133.16.212.186.132.053.238 0 .37.08 0-.054-.026-.08 0-.133.08-.08.186.026.265-.027.159-.106-.132-.29-.212-.423 0-.026.027-.053.027-.053.159.132.29.291.476.397.106.053.344.106.291-.027-.106-.211-.29-.396-.45-.608v-.08c-.053 0-.053-.026-.053-.052v-.08c-.079-.053-.052-.132-.105-.185-.053-.106-.027-.238-.053-.37-.027-.133-.053-.212-.08-.344-.053-.344-.132-.635-.185-.953-.053-.37.212-.688.397-1.032.132-.238.291-.476.556-.635.053-.238.211-.45.37-.635s.423-.317.609-.397c.29-.132.529-.211.529-.211H.092v10.636h9.763c.37-.265.767-.397 1.297-.661.264-.08.82-.344 1.031-.556zM9.088 8.013c-.053 0-.132.027-.106-.026.026-.106.159-.106.238-.133a.447.447 0 01.132-.052c.053.052.106.052.133.079-.106.132-.265.08-.397.132zm-3.07-.45s-.026-.026-.026-.053a6.02 6.02 0 00.635-1.031c.265-.133.476-.344.688-.556.344-.37.714-.688 1.138-.873a.733.733 0 01.529.026c-.053.08-.159.053-.238.133-.027 0-.053 0-.053-.027.026-.026.026-.053.026-.053-.211.212-.476.318-.635.582-.132.212-.211.45-.45.53-.079.026.027-.053-.026-.053-.661.37-1.111.846-1.587 1.375zM7.687 6.24c-.027.053-.053.053-.053.08-.027.053-.053.053-.08.08-.026 0-.053 0-.053-.027.027-.08.08-.159.16-.185.026.026.026.026.026.052zm.926 3.017a.057.057 0 01-.053.053c.026 0 .053.026.026.026-.053.053-.08.08-.159.106H8.4l-.08.08c-.026.026-.132 0-.105-.027.053-.053.106-.106.158-.132l.08-.08.053-.053c.026 0 .132-.026.106.027zm-.37-.159l-.239.159c-.08.053-.185.08-.265.132-.079.053-.026-.026-.026 0-.08.053-.132.106-.212.159l-.026.026-.027.027-.053.053-.026.026s-.053 0-.053-.026c0-.027-.026 0-.026.026 0 0-.027 0-.027.027H7.21c-.026.026-.053.052-.08.052-.052.027-.078.08-.105.133-.026.053 0 .026-.026.026H6.97c-.026 0 0-.026-.026-.026.026-.027.053-.053.053-.08l.026-.026c0-.027.027-.027.027-.053v-.026c.026-.027.052-.053.052-.08 0-.026.027-.026.027-.053 0 0 .026-.026.026-.053 0-.026.027-.026.027-.053v-.079c.026-.026.053-.08.08-.106-.027.027-.054.053-.08.053-.027.027-.053 0-.027-.026.027 0 .027-.027.053-.053.027-.027.053-.08.106-.106.027-.027.053-.027.053-.053l.053-.053c.185-.185.503-.185.767-.291.106-.053.212.026.318 0 .053 0 .132 0 .185.053-.106.08-.265.185-.45.291zm.422-1.402c-.026-.027.053 0 .08-.053h-.159c-.026 0-.026-.027-.026-.053l-.318.08c-.132.052-.264.132-.423.184-.212.08-.397.265-.635.344-.027 0-.027-.026-.027-.053.027-.052.106-.079.133-.132 0-.026 0-.053-.027-.053.159-.211.37-.344.582-.529v-.053c.053-.08.159-.132.212-.211a.502.502 0 01.212-.186c-.027-.026-.053-.026-.053-.053-.08 0-.16.053-.238-.026.026-.027.079-.053.132-.08-.027 0-.027 0-.053-.026-.027-.053.026-.08.106-.106.08-.026.185-.026.238-.08-.132-.026-.291.054-.45-.052.106-.265.265-.476.503-.609.026 0 .053 0 .053.027 0 .106-.053.185-.159.212.159.052.317.052.476.132-.026.053-.053.026-.08.026.107.053.213.027.318.106-.053.053-.132 0-.185 0 .635.185 1.297.318 1.8.715-.45.211-.9.317-1.377.423-.052 0-.105 0-.158-.027 0 .027 0 .053-.027.053-.08 0-.132 0-.211.053-.053.053-.186.08-.239.027z" fill="#000091"/><path d="M29.328.075h-11.43s.027 0 .106.053c.106.053.212.105.291.158a.88.88 0 01.37.318c.054.053.107.185.054.264-.053.106-.053.265-.16.291-.131.053-.29.053-.422.053-.08 0-.16-.026-.239-.053.291.133.583.265.794.53.027.053.106.053.185.053v.079c-.053.053-.079.053-.053.132h.053c.106-.053.08-.238.212-.185.106.053.132.212.08.291-.08.08-.16.132-.239.212-.026.053-.026.106 0 .132a.94.94 0 01.106.238c.053.132.08.291.132.45.08.291.16.608.133.9 0 .158-.08.29-.027.45.053.158.133.29.212.423.08.132.159.211.212.317.132.212.344.397.238.635-.053.132-.291.132-.424.212-.132.106-.026.264.053.37.106.185-.132.291-.264.37.053.054.132.054.132.08.026.106.132.159.053.265-.08.132-.318.185-.212.37.08.132.027.291-.026.45-.053.185-.212.264-.37.29a.607.607 0 01-.371.027c-.053-.026-.08-.053-.132-.053-.344-.053-.688-.132-1.032-.132-.106.027-.212.053-.291.08-.08.079-.159.132-.238.211l-.053.053-.027.027s0 .026-.026.026l-.159.238v.027s0 .026-.026.026c-.053.132-.106.238-.16.37-.131.45-.079.847.027.953.027.026.662.212 1.112.423.211.08.344.159.476.238h11.218V.075z" fill="#e1000f"/><path d="M18.56 3.964c.08.027.212.027.212.053-.053.159-.291.212-.397.37h-.053c-.053.053-.053.133-.106.133-.053-.027-.132 0-.185.026.08.08.185.132.29.132.027 0 .054.053.054.08 0 0 .026 0 .053-.027.026 0 .053 0 .053.027v.08c-.053.079-.16.052-.239.052a.656.656 0 00.45 0c.132-.053 0-.238.08-.344-.053 0 0-.053-.053-.053.053-.053.079-.106.132-.132a.202.202 0 00.132-.053c0-.053-.08-.053-.053-.106.133-.08.212-.211.186-.317-.027-.053-.186-.053-.292-.106-.105-.053-.211 0-.343.026-.106 0-.212.053-.292.08a1.687 1.687 0 00-.37.211c.132-.053.291-.079.45-.132.08 0 .185-.053.29 0z" fill="#9d9d9c"/><g aria-label="amendes" transform="matrix(.26458 0 0 .26458 -1.997 -3.722)" style="line-height:1.25;-inkscape-font-specification:'Century Gothic Normal';font-variant-ligatures:normal;font-variant-caps:normal;font-variant-numeric:normal;font-variant-east-asian:normal;shape-inside:url(#a)" font-weight="400" font-size="85.333" font-family="Century Gothic" fill="#0083ae"><path d="M382.381 101.424v45.333h-5.75v-7.792q-3.666 4.458-8.25 6.708-4.541 2.25-9.958 2.25-9.625 0-16.458-6.958-6.792-7-6.792-17 0-9.791 6.875-16.75 6.875-6.958 16.542-6.958 5.583 0 10.083 2.375 4.542 2.375 7.958 7.125v-8.333zm-23.333 4.458q-4.875 0-9 2.417-4.125 2.375-6.583 6.708-2.417 4.333-2.417 9.167 0 4.791 2.458 9.166 2.459 4.375 6.584 6.834 4.166 2.416 8.916 2.416 4.792 0 9.084-2.416 4.291-2.417 6.583-6.542 2.333-4.125 2.333-9.292 0-7.875-5.208-13.166-5.167-5.292-12.75-5.292zM395.506 101.424h5.792v7.833q3.042-4.333 6.25-6.333 4.417-2.667 9.292-2.667 3.291 0 6.25 1.292 2.958 1.291 4.833 3.458 1.875 2.125 3.25 6.125 2.916-5.333 7.291-8.083 4.375-2.792 9.417-2.792 4.708 0 8.292 2.375 3.625 2.375 5.375 6.625t1.75 12.75v24.75h-5.959v-24.75q0-7.292-1.041-10-1.042-2.75-3.584-4.417-2.5-1.666-6-1.666-4.25 0-7.791 2.5-3.5 2.5-5.125 6.666-1.625 4.167-1.625 13.917v17.75h-5.792v-23.208q0-8.209-1.042-11.125-1-2.959-3.541-4.709-2.542-1.791-6.042-1.791-4.041 0-7.583 2.458-3.5 2.417-5.208 6.542-1.667 4.125-1.667 12.625v19.208h-5.792zM513.714 131.715l4.917 2.584q-2.417 4.75-5.584 7.666-3.166 2.917-7.125 4.458-3.958 1.5-8.958 1.5-11.083 0-17.333-7.25-6.25-7.291-6.25-16.458 0-8.625 5.292-15.375 6.708-8.583 17.958-8.583 11.583 0 18.5 8.792 4.916 6.208 5 15.5h-40.75q.167 7.916 5.042 13 4.875 5.041 12.041 5.041 3.459 0 6.709-1.208 3.291-1.208 5.583-3.208 2.291-2 4.958-6.459zm0-12.208q-1.167-4.667-3.417-7.458-2.208-2.792-5.875-4.5-3.666-1.709-7.708-1.709-6.666 0-11.458 4.292-3.5 3.125-5.292 9.375zM531.047 101.424h5.834v8.125q3.5-4.667 7.75-6.959 4.25-2.333 9.25-2.333 5.083 0 9 2.583 3.958 2.584 5.833 6.959t1.875 13.625v23.333h-5.792v-21.625q0-7.833-.666-10.458-1.042-4.5-3.917-6.75-2.875-2.292-7.5-2.292-5.292 0-9.5 3.5-4.167 3.5-5.5 8.667-.833 3.375-.833 12.333v16.625h-5.834zM628.297 83.924v62.833h-5.75v-7.792q-3.667 4.458-8.25 6.708-4.542 2.25-9.958 2.25-9.625 0-16.459-6.958-6.791-7-6.791-17 0-9.791 6.875-16.75 6.875-6.958 16.541-6.958 5.584 0 10.084 2.375 4.541 2.375 7.958 7.125V83.924zm-23.333 21.958q-4.875 0-9 2.417-4.125 2.375-6.584 6.708-2.416 4.333-2.416 9.167 0 4.791 2.458 9.166t6.583 6.834q4.167 2.416 8.917 2.416 4.792 0 9.083-2.416 4.292-2.417 6.584-6.542 2.333-4.125 2.333-9.292 0-7.875-5.208-13.166-5.167-5.292-12.75-5.292zM679.713 131.715l4.917 2.584q-2.417 4.75-5.583 7.666-3.167 2.917-7.125 4.458-3.958 1.5-8.958 1.5-11.084 0-17.334-7.25-6.25-7.291-6.25-16.458 0-8.625 5.292-15.375 6.708-8.583 17.958-8.583 11.584 0 18.5 8.792 4.917 6.208 5 15.5h-40.75q.167 7.916 5.042 13 4.875 5.041 12.042 5.041 3.458 0 6.708-1.208 3.292-1.208 5.583-3.208 2.292-2 4.958-6.459zm0-12.208q-1.166-4.667-3.416-7.458-2.208-2.792-5.875-4.5-3.667-1.709-7.708-1.709-6.667 0-11.459 4.292-3.5 3.125-5.291 9.375zM719.838 106.382l-3.75 3.875q-4.666-4.542-9.125-4.542-2.833 0-4.875 1.875-2 1.875-2 4.375 0 2.209 1.667 4.209 1.667 2.041 7 4.791 6.5 3.375 8.833 6.5 2.292 3.167 2.292 7.125 0 5.584-3.917 9.458-3.916 3.875-9.791 3.875-3.917 0-7.5-1.708-3.542-1.708-5.875-4.708l3.666-4.167q4.459 5.042 9.459 5.042 3.5 0 5.958-2.25t2.458-5.292q0-2.5-1.625-4.458-1.625-1.917-7.333-4.833-6.125-3.167-8.333-6.25-2.209-3.084-2.209-7.042 0-5.167 3.5-8.583 3.542-3.417 8.917-3.417 6.25 0 12.583 6.125z"/></g><g aria-label=".gouv" transform="matrix(.26458 0 0 .26458 102.25 -3.722)" style="line-height:1.25;-inkscape-font-specification:'Century Gothic Normal';font-variant-ligatures:normal;font-variant-caps:normal;font-variant-numeric:normal;font-variant-east-asian:normal;shape-inside:url(#a)" font-weight="400" font-size="85.333" font-family="Century Gothic" fill="#8f8f8f"><path d="M343.631 137.59q2.125 0 3.625 1.5t1.5 3.667q0 2.125-1.5 3.666-1.5 1.5-3.625 1.5t-3.625-1.5q-1.5-1.541-1.5-3.666 0-2.167 1.5-3.667t3.625-1.5zM399.923 101.424h5.875v36.125q0 9.541-1.667 13.958-2.291 6.25-7.958 9.625t-13.625 3.375q-5.833 0-10.5-1.667-4.625-1.625-7.542-4.417-2.916-2.75-5.375-8.083h6.334q2.583 4.5 6.666 6.667 4.084 2.166 10.125 2.166 5.959 0 10.042-2.25 4.125-2.208 5.875-5.583t1.75-10.875v-2.333q-3.292 4.167-8.042 6.416-4.75 2.209-10.083 2.209-6.25 0-11.75-3.084-5.5-3.124-8.5-8.374t-3-11.542q0-6.292 3.125-11.708 3.125-5.459 8.625-8.625 5.542-3.167 11.667-3.167 5.083 0 9.458 2.125 4.417 2.083 8.5 6.917zm-17.208 4.458q-4.959 0-9.209 2.417-4.25 2.375-6.666 6.625-2.417 4.208-2.417 9.125 0 7.458 5 12.333t12.958 4.875q8.042 0 12.917-4.833 4.917-4.834 4.917-12.709 0-5.125-2.25-9.125-2.25-4.041-6.375-6.375-4.125-2.333-8.875-2.333zM439.84 100.257q10.458 0 17.333 7.583 6.25 6.917 6.25 16.375 0 9.5-6.625 16.625-6.584 7.083-16.959 7.083-10.416 0-17.041-7.083-6.583-7.125-6.583-16.625 0-9.416 6.25-16.333 6.874-7.625 17.374-7.625zm0 5.708q-7.25 0-12.459 5.375-5.208 5.375-5.208 13 0 4.917 2.375 9.167t6.416 6.583q4.042 2.292 8.875 2.292 4.834 0 8.875-2.292 4.042-2.333 6.417-6.583t2.375-9.167q0-7.625-5.25-13-5.208-5.375-12.417-5.375zM473.464 101.424h5.875v21.166q0 7.75.834 10.667 1.25 4.167 4.75 6.583 3.541 2.417 8.416 2.417t8.25-2.333q3.417-2.375 4.708-6.209.875-2.625.875-11.125v-21.166h5.959v22.25q0 9.375-2.209 14.125-2.166 4.75-6.583 7.458-4.375 2.666-11 2.666t-11.083-2.666q-4.417-2.708-6.625-7.5-2.167-4.833-2.167-14.5zM521.756 101.424h6.208l15.167 33 15.041-33h6.25l-20.75 45.333h-1.041z"/></g><g aria-label=".fr" transform="matrix(.26458 0 0 .26458 163.103 -3.722)" style="line-height:1.25;-inkscape-font-specification:'Century Gothic Normal';font-variant-ligatures:normal;font-variant-caps:normal;font-variant-numeric:normal;font-variant-east-asian:normal;shape-inside:url(#a)" font-weight="400" font-size="85.333" font-family="Century Gothic" fill="#bcbcbc"><path d="M343.631 137.59q2.125 0 3.625 1.5t1.5 3.667q0 2.125-1.5 3.666-1.5 1.5-3.625 1.5t-3.625-1.5q-1.5-1.541-1.5-3.666 0-2.167 1.5-3.667t3.625-1.5zM379.548 83.924v5.708q-3.208-1.375-5.5-1.375-1.708 0-2.833.708-1.125.667-1.417 1.584-.292.875-.292 4.75v6.125h9.459v5h-9.5v40.333h-5.834v-40.333h-5.958v-5h5.958V94.34q0-4.875.875-6.958.917-2.083 3.042-3.333 2.167-1.292 5.208-1.292 2.834 0 6.792 1.167zM385.506 101.424h5.959v6.625q2.666-3.917 5.625-5.834 2.958-1.958 6.166-1.958 2.417 0 5.167 1.542l-3.042 4.916q-1.833-.791-3.083-.791-2.917 0-5.625 2.416-2.708 2.375-4.125 7.417-1.083 3.875-1.083 15.667v15.333h-5.959z"/></g></svg>